<svg width="1040" height="41" viewBox="0 0 1040 41" fill="none" xmlns="http://www.w3.org/2000/svg">
<path d="M0 20.8647L1000 20.8648" stroke="#D9D9D9" stroke-width="1.5"/>
<circle cx="20" cy="20" r="20" transform="matrix(-1.19249e-08 1 1 1.19249e-08 1000 0.864746)" fill="#D1232A"/>
<path d="M1022.53 20.3344C1022.82 20.6273 1022.82 21.1022 1022.53 21.3951L1017.76 26.168C1017.46 26.4609 1016.99 26.4609 1016.7 26.168C1016.4 25.8752 1016.4 25.4003 1016.7 25.1074L1020.94 20.8647L1016.7 16.6221C1016.4 16.3292 1016.4 15.8543 1016.7 15.5614C1016.99 15.2686 1017.46 15.2686 1017.76 15.5614L1022.53 20.3344ZM1000 20.1147L1022 20.1147L1022 21.6147L1000 21.6147L1000 20.1147Z" fill="white"/>
</svg>
