<svg width="160" height="127" viewBox="0 0 160 127" fill="none" xmlns="http://www.w3.org/2000/svg">
<path d="M88 94.4245C88 75.9319 94.1177 58.223 106.353 41.2976C118.902 24.3722 136 10.8946 157.647 0.864746L160 8.38712C146.196 15.9095 134.431 25.1558 124.706 36.1259C115.294 47.0961 110.118 58.6931 109.176 70.917C113.255 67.1558 117.647 64.1782 122.353 61.9842C127.373 59.4767 132.392 58.223 137.412 58.223C144.627 58.223 150.118 60.2603 153.882 64.3349C157.961 68.0961 160 73.4244 160 80.32C160 88.1558 157.961 95.6782 153.882 102.887C149.804 109.783 144.314 115.581 137.412 120.283C130.824 124.671 123.608 126.865 115.765 126.865C106.667 126.865 99.7647 124.201 95.0588 118.872C90.3529 113.23 88 105.081 88 94.4245ZM0 94.4245C0 75.9319 6.27451 58.223 18.8235 41.2976C31.3725 24.3722 48.4706 10.8946 70.1177 0.864746L72.4706 8.38712C58.3529 15.9095 46.5882 25.1558 37.1765 36.1259C27.7647 47.0961 22.5882 58.6931 21.6471 70.917C25.7255 67.1558 30.1176 64.1782 34.8235 61.9842C39.5294 59.4767 44.3922 58.223 49.4118 58.223C56.9412 58.223 62.5882 60.2603 66.3529 64.3349C70.1176 68.0961 72 73.4244 72 80.32C72 88.1558 69.9608 95.6782 65.8824 102.887C61.8039 109.783 56.4706 115.581 49.8824 120.283C43.2941 124.671 35.9216 126.865 27.7647 126.865C18.6667 126.865 11.7647 124.201 7.05882 118.872C2.35294 113.23 0 105.081 0 94.4245Z" fill="#D1232A"/>
</svg>
