<svg width="14" height="14" viewBox="0 0 14 14" fill="none" xmlns="http://www.w3.org/2000/svg">
<path d="M7.63236 11.6264C8.85249 12.2405 10.2782 12.6919 11.9383 12.9065C12.5111 12.9806 13 12.5198 13 11.9422V10.7896C13 10.3307 12.6877 9.93071 12.2425 9.81942L10.5493 9.39611C10.2085 9.31092 9.84802 9.41077 9.59964 9.65915L7.63236 11.6264ZM7.63236 11.6264C5.29562 10.4504 3.71279 8.67753 2.68087 6.82791M2.68087 6.82791C1.75475 5.16791 1.27237 3.44605 1.08699 2.03822C1.01319 1.47772 1.46855 1.00879 2.03389 1.00879H3.1802C3.65688 1.00879 4.06729 1.34525 4.16078 1.81267L4.64504 4.234C4.71061 4.56186 4.60799 4.9008 4.37157 5.13722L2.68087 6.82791Z" stroke="#D1232A" stroke-width="1.5"/>
</svg>
