<svg width="42" height="12" viewBox="0 0 42 12" fill="none" xmlns="http://www.w3.org/2000/svg">
<path d="M41 6.75C41.4142 6.75 41.75 6.41421 41.75 6C41.75 5.58579 41.4142 5.25 41 5.25L41 6.75ZM0.469669 5.46967C0.176777 5.76256 0.176777 6.23744 0.469669 6.53033L5.24264 11.3033C5.53553 11.5962 6.01041 11.5962 6.3033 11.3033C6.5962 11.0104 6.5962 10.5355 6.3033 10.2426L2.06066 6L6.3033 1.75736C6.5962 1.46446 6.5962 0.989591 6.3033 0.696698C6.01041 0.403804 5.53553 0.403804 5.24264 0.696698L0.469669 5.46967ZM41 5.25L1 5.25L1 6.75L41 6.75L41 5.25Z" fill="white"/>
</svg>
