<svg width="88" height="101" viewBox="0 0 88 101" fill="none" xmlns="http://www.w3.org/2000/svg">
<path d="M2.93699 84.5903C3.6712 84.5903 4.84594 84.884 4.84594 85.765V86.2055H4.11173V85.9119C4.11173 85.4713 3.37752 85.3245 2.79014 85.3245C1.76224 85.3245 0.881187 86.0587 0.881187 87.2334C0.881187 88.4082 1.76224 89.2892 2.79014 89.2892C3.81805 89.2892 4.40542 88.555 4.40542 88.555L4.84594 89.1424C4.84594 89.1424 4.11173 90.0235 2.79014 90.0235C1.17487 90.0235 0.146973 88.8487 0.146973 87.2334C0.293816 85.765 1.32172 84.5903 2.93699 84.5903ZM5.87384 85.3245H5.43332V84.7371H8.51702C8.8107 84.7371 8.95755 84.884 8.95755 85.1776V85.765H8.22333V85.4713C8.22333 85.3245 8.22333 85.3245 8.07649 85.3245H6.60806V86.9397H8.37017V87.5271H6.60806V88.9956C6.60806 89.1424 6.60806 89.1424 6.7549 89.1424H8.22333C8.37017 89.1424 8.37017 89.1424 8.37017 88.9956V88.7019H9.10439V89.2892C9.10439 89.5829 8.95754 89.7298 8.66386 89.7298H6.31437C6.02069 89.7298 5.87384 89.5829 5.87384 89.2892V85.3245ZM9.98545 85.3245H9.54492V84.7371H11.8944C12.7755 84.7371 13.5097 85.3245 13.5097 86.3524C13.5097 87.3803 12.7755 87.9677 11.8944 87.9677H10.8665V89.8766H10.1323V85.3245H9.98545ZM11.7476 87.2334C12.3349 87.2334 12.7755 86.7929 12.7755 86.2055C12.7755 85.6182 12.3349 85.1776 11.7476 85.1776H10.7197V87.2334H11.7476ZM14.3907 85.3245H13.9502V84.7371H16.8871C17.1807 84.7371 17.3276 84.884 17.3276 85.1776V85.765H16.5934V85.4713C16.5934 85.3245 16.5934 85.3245 16.4465 85.3245H15.1249V89.8766H14.3907V85.3245ZM18.0618 85.4713C18.0618 85.3245 18.0618 85.3245 17.915 85.3245H17.6213V84.7371H18.3555C18.6492 84.7371 18.796 84.884 18.796 85.1776V87.9677C18.796 88.2613 18.796 88.7019 18.796 88.7019C18.796 88.7019 19.0897 88.2613 19.2365 87.9677L21.4392 84.7371H22.1734V89.1424C22.1734 89.2892 22.1734 89.2892 22.3202 89.2892H22.6139V89.8766H21.8797C21.586 89.8766 21.4392 89.7298 21.4392 89.4361V86.6461C21.4392 86.3524 21.4392 85.9119 21.4392 85.9119C21.4392 85.9119 21.1455 86.3524 20.9987 86.6461L18.796 90.0235H18.0618V85.4713ZM23.6418 85.3245H23.2013V84.7371H26.285C26.5787 84.7371 26.7255 84.884 26.7255 85.1776V85.765H25.9913V85.4713C25.9913 85.3245 25.9913 85.3245 25.8445 85.3245H24.376V86.9397H26.1382V87.5271H24.376V88.9956C24.376 89.1424 24.376 89.1424 24.5229 89.1424H25.9913C26.1382 89.1424 26.1382 89.1424 26.1382 88.9956V88.7019H26.8724V89.2892C26.8724 89.5829 26.7255 89.7298 26.4318 89.7298H24.0824C23.7887 89.7298 23.6418 89.5829 23.6418 89.2892V85.3245ZM27.9003 85.3245H27.4597V84.7371H29.6624C30.5435 84.7371 31.1308 85.1776 31.1308 86.0587C31.1308 86.6461 30.8371 86.9398 30.5435 87.2334C31.1308 87.3803 31.4245 87.9677 31.4245 88.555C31.4245 89.5829 30.6903 90.0235 29.8092 90.0235H28.4876C28.194 90.0235 28.0471 89.8766 28.0471 89.5829V85.3245H27.9003ZM29.6624 86.7929C30.1029 86.7929 30.3966 86.4992 30.3966 86.0587C30.3966 85.6182 30.1029 85.3245 29.6624 85.3245H28.6345V86.9397H29.6624V86.7929ZM28.7813 89.2892H29.8092C30.3966 89.2892 30.6903 88.9955 30.6903 88.4082C30.6903 87.8208 30.3966 87.5271 29.8092 87.5271H28.6345V89.1424C28.6345 89.1424 28.6345 89.2892 28.7813 89.2892ZM34.5082 84.5903C35.9766 84.5903 37.1514 85.765 37.1514 87.2334C37.1514 88.7019 35.9766 89.8766 34.5082 89.8766C33.0398 89.8766 31.865 88.7019 31.865 87.2334C31.865 85.765 33.0398 84.5903 34.5082 84.5903ZM34.5082 89.2892C35.5361 89.2892 36.4172 88.4082 36.4172 87.2334C36.4172 86.0587 35.5361 85.3245 34.5082 85.3245C33.4803 85.3245 32.5992 86.2055 32.5992 87.2334C32.7461 88.4082 33.4803 89.2892 34.5082 89.2892ZM37.8856 86.9397H40.0882V87.5271H37.8856V86.9397ZM41.263 85.3245H40.8225V84.7371H44.7872C45.0809 84.7371 45.2277 84.884 45.2277 85.1776V89.1424C45.2277 89.2892 45.2277 89.2892 45.3746 89.2892H45.6683V89.8766H44.9341C44.6404 89.8766 44.4935 89.7298 44.4935 89.4361V85.4713C44.4935 85.3245 44.4935 85.3245 44.3467 85.3245H41.9972V89.8766H41.263V85.3245ZM48.8988 84.5903C50.3672 84.5903 51.542 85.765 51.542 87.2334C51.542 88.7019 50.3672 89.8766 48.8988 89.8766C47.4304 89.8766 46.2556 88.7019 46.2556 87.2334C46.2556 85.765 47.2835 84.5903 48.8988 84.5903ZM48.8988 89.2892C49.9267 89.2892 50.8078 88.4082 50.8078 87.2334C50.8078 86.0587 49.9267 85.3245 48.8988 85.3245C47.8709 85.3245 46.9899 86.2055 46.9899 87.2334C46.9899 88.4082 47.8709 89.2892 48.8988 89.2892ZM54.6257 84.5903C55.3599 84.5903 56.5346 84.884 56.5346 85.765V86.2055H55.9473V85.9119C55.9473 85.4713 55.2131 85.3245 54.6257 85.3245C53.5978 85.3245 52.7167 86.0587 52.7167 87.2334C52.7167 88.4082 53.5978 89.2892 54.6257 89.2892C55.6536 89.2892 56.241 88.555 56.241 88.555L56.6815 89.1424C56.6815 89.1424 55.9473 90.0235 54.6257 90.0235C53.0104 90.0235 51.9825 88.8487 51.9825 87.2334C51.9825 85.765 53.1573 84.5903 54.6257 84.5903ZM56.9752 89.2892C57.2689 89.2892 57.2689 89.2892 57.2689 89.1424L58.8841 84.7371H59.6183L61.2336 89.1424C61.2336 89.2892 61.3805 89.2892 61.5273 89.2892H61.6741V89.8766H61.2336C60.9399 89.8766 60.7931 89.7298 60.6462 89.4361L60.2057 88.4082H58.2968L57.8562 89.4361C57.7094 89.7298 57.5625 89.8766 57.2689 89.8766H56.8283V89.2892H56.9752ZM60.0589 87.674L59.4715 86.0587C59.3247 85.765 59.3247 85.3245 59.3247 85.3245C59.3247 85.3245 59.1778 85.765 59.1778 86.0587L58.5904 87.674H60.0589ZM62.2615 89.2892C63.1426 88.2613 63.1426 86.9398 63.1426 85.765V85.3245H62.702V84.7371H65.7857C66.0794 84.7371 66.2263 84.884 66.2263 85.1776V89.2892H66.3731C66.6668 89.2892 66.8136 89.4361 66.8136 89.7298V90.9045H66.2263V90.0235C66.2263 89.8766 66.2263 89.8766 66.0794 89.8766H62.702C62.5552 89.8766 62.5552 89.8766 62.5552 90.0235V90.9045H61.821V89.7298C61.821 89.2892 61.9678 89.2892 62.2615 89.2892ZM65.4921 89.2892V85.4713C65.4921 85.3245 65.4921 85.3245 65.3452 85.3245H63.8768V85.765C63.8768 86.9398 63.7299 88.2613 63.1426 89.1424H65.4921V89.2892ZM69.8973 84.5903C70.6316 84.5903 71.8063 84.884 71.8063 85.765V86.2055H71.0721V85.9119C71.0721 85.4713 70.3379 85.3245 69.7505 85.3245C68.7226 85.3245 67.8415 86.0587 67.8415 87.2334C67.8415 88.4082 68.7226 89.2892 69.7505 89.2892C70.7784 89.2892 71.3658 88.555 71.3658 88.555L71.8063 89.1424C71.8063 89.1424 71.0721 90.0235 69.7505 90.0235C68.1352 90.0235 67.1073 88.8487 67.1073 87.2334C67.2542 85.765 68.2821 84.5903 69.8973 84.5903ZM72.8342 85.4713C72.8342 85.3245 72.8342 85.3245 72.6874 85.3245H72.3937V84.7371H73.1279C73.4216 84.7371 73.5684 84.884 73.5684 85.1776V86.9397H74.0089C74.1558 86.9397 74.3026 86.9397 74.4495 86.7929L75.6242 84.7371H76.5053L75.1837 86.9397C75.0368 87.2334 74.89 87.2334 74.89 87.2334C74.89 87.2334 75.0368 87.2334 75.1837 87.5271L75.9179 89.1424C75.9179 89.2892 76.0647 89.2892 76.2116 89.2892H76.5053V89.8766H76.0647C75.6242 89.8766 75.4774 89.8766 75.3305 89.4361L74.4495 87.674C74.3026 87.5271 74.1558 87.5271 74.0089 87.5271H73.5684V89.8766H72.8342V85.4713ZM77.2395 85.4713C77.2395 85.3245 77.2395 85.3245 77.0926 85.3245H76.799V84.7371H77.5332C77.8269 84.7371 77.9737 84.884 77.9737 85.1776V87.9677C77.9737 88.2613 77.9737 88.7019 77.9737 88.7019C77.9737 88.7019 78.2674 88.2613 78.4142 87.9677L80.6169 84.7371H81.3511V89.1424C81.3511 89.2892 81.3511 89.2892 81.4979 89.2892H81.7916V89.8766H81.0574C80.7637 89.8766 80.6169 89.7298 80.6169 89.4361V86.6461C80.6169 86.3524 80.6169 85.9119 80.6169 85.9119C80.6169 85.9119 80.3232 86.3524 80.1763 86.6461L77.9737 89.8766H77.2395V85.4713ZM82.9664 85.4713C82.9664 85.3245 82.9664 85.3245 82.8195 85.3245H82.379V84.7371H83.1132C83.4069 84.7371 83.5537 84.884 83.5537 85.1776V87.9677C83.5537 88.2613 83.5537 88.7019 83.5537 88.7019C83.5537 88.7019 83.8474 88.2613 83.9943 87.9677L86.1969 84.7371H86.9311V89.1424C86.9311 89.2892 86.9311 89.2892 87.078 89.2892H87.3716V89.8766H86.7843C86.4906 89.8766 86.3437 89.7298 86.3437 89.4361V86.6461C86.3437 86.3524 86.3437 85.9119 86.3437 85.9119C86.3437 85.9119 86.0501 86.3524 85.9032 86.6461L83.7006 90.0235H82.9664V85.4713ZM83.8474 83.5624L84.4348 83.4155V83.5624C84.4348 83.8561 84.7285 84.0029 84.8753 84.0029C85.169 84.0029 85.4627 83.8561 85.4627 83.5624V83.4155H86.0501V83.5624C86.0501 84.1497 85.6095 84.4434 85.0222 84.4434C84.4348 84.4434 83.8474 84.1497 83.8474 83.5624Z" fill="#464646"/>
<path d="M7.92952 80.9192C3.37739 80.9192 0 77.5419 0 73.1366C0 70.7871 1.0279 67.2629 3.52423 67.2629H5.28634V69.7592H4.1116C3.0837 69.7592 2.49633 71.815 2.49633 73.1366C2.49633 76.0734 4.84581 78.2761 7.92952 78.2761C11.1601 78.2761 13.6564 75.9266 13.6564 73.1366C13.6564 70.3466 11.7474 68.5844 11.7474 68.5844L11.4537 68.4376L13.3627 66.9692L13.5095 67.116C13.6564 67.2629 16.1527 69.3187 16.1527 73.2834C16.2996 77.5419 12.6285 80.9192 7.92952 80.9192ZM2.64317 66.0881H0.293687V54.047C0.293687 52.8723 0.881058 52.4317 1.90896 52.4317H13.3627C13.5095 52.4317 13.5095 52.4317 13.5095 52.2849V51.1101H15.859V53.4596C15.859 54.6344 15.2717 55.0749 14.2438 55.0749H2.79002C2.64317 55.0749 2.64317 55.0749 2.64317 55.2217V61.9765H16.0059V64.6197H2.64317V66.0881V66.0881ZM16.0059 50.3759H13.6564V49.348C13.6564 49.2012 13.6564 49.2012 13.3627 49.2012L0.293687 48.1733V45.5301L8.51689 41.859C8.95742 41.7122 9.54479 41.4185 9.83847 41.2717C9.39795 41.1248 8.95742 40.978 8.51689 40.6843L0.293687 37.0132V34.3701L13.3627 33.3422C13.6564 33.3422 13.6564 33.1953 13.6564 33.1953V32.3142H16.0059V34.5169C16.0059 35.5448 15.5653 36.1322 14.3906 36.1322L6.31424 36.7195C6.02056 36.7195 5.72687 36.7195 5.43319 36.7195C5.72687 36.8664 6.02056 37.0132 6.31424 37.0132L13.069 40.0969V42.1527L6.46109 45.5301C6.1674 45.677 5.87372 45.8238 5.58003 45.9706C5.87372 45.9706 6.1674 45.9706 6.46109 45.9706L14.5374 46.558C15.7122 46.7049 16.1527 47.1454 16.1527 48.1733V50.3759H16.0059ZM2.64317 31.7269H0.293687V29.3774C0.293687 28.2026 0.881058 27.7621 1.90896 27.7621H6.60793V26.4405C6.60793 25.8532 6.46109 25.5595 6.1674 25.4126L0.293687 22.0352V19.0984L7.04846 22.9163C7.48899 23.21 7.78267 23.3568 7.92952 23.5037C8.07636 23.3568 8.37004 23.0631 8.81057 22.7695L13.3627 20.5668C13.6564 20.42 13.6564 20.2731 13.6564 19.6858V19.0984H16.0059V20.5668C16.0059 21.8884 15.859 22.3289 14.6843 22.9163L9.39794 25.5595C9.10426 25.7063 8.95742 26.1468 8.95742 26.7342V27.7621H16.0059V30.4053H2.93686C2.79001 30.4053 2.79002 30.4053 2.79002 30.5521V31.7269H2.64317Z" fill="#D1232A"/>
<path d="M80.1761 78.276L80.0293 80.4786H87.5183L85.903 77.2481C83.4067 71.8149 83.4067 58.8927 83.5535 51.8442L83.113 52.1379C81.7914 52.7253 79.4419 54.1937 77.0924 56.1027C75.3303 57.5711 73.8619 59.1864 72.834 60.8017C80.7635 65.7943 80.323 76.6607 80.1761 78.276Z" fill="#464646"/>
<path d="M43.4655 75.9266C45.3745 77.9824 45.9618 80.4788 45.9618 80.4788H52.7166C51.1013 77.5419 50.2203 77.5419 47.8708 73.2835C46.696 71.2277 46.9897 70.0529 48.3113 68.144L53.1571 62.2703C47.4303 62.5639 43.4655 65.0603 41.4097 66.5287C41.4097 68.8782 41.116 71.6682 43.4655 75.9266Z" fill="#464646"/>
<path d="M43.4653 9.84717V13.3714C43.4653 16.0146 45.668 18.2172 48.3111 18.2172H55.6533L60.0586 14.5461C60.2054 14.3993 60.2054 14.3993 60.3523 14.2525H47.8706C45.5211 14.2525 43.4653 12.1967 43.4653 9.84717Z" fill="#464646"/>
<path d="M20.411 36.279C20.5578 31.8737 24.0821 28.4963 28.4874 28.4963H36.1232C38.179 28.4963 39.7943 26.7342 39.7943 24.6784C39.7943 22.7694 38.0321 21.1542 36.1232 21.1542H33.1863C32.7458 21.1542 32.3053 21.301 32.0116 21.5947L30.3963 22.4757C29.9558 22.6226 29.5153 22.7694 29.0747 22.7694H27.4595C27.0189 22.7694 26.5784 22.6226 26.2847 22.4757L23.3479 21.0073C23.0542 20.8605 22.9073 20.5668 22.9073 20.2731V19.9794C22.9073 19.3921 23.3479 19.0984 23.7884 19.0984H36.1232C39.3537 19.0984 41.9969 21.7415 41.9969 25.1189C41.9969 28.3495 39.2069 30.8458 35.9763 30.8458H28.4874C25.4037 30.8458 22.7605 33.3421 22.6136 36.4258C22.4668 39.6564 25.11 42.2995 28.3405 42.2995H47.7238C48.1643 42.2995 48.458 42.1527 48.7517 42.0059L59.618 34.9574C61.0865 34.0763 61.8207 32.4611 61.8207 30.8458V27.6153H67.2539C68.7223 27.6153 70.0439 28.79 70.0439 30.4053V31.1395C70.0439 31.4332 70.3376 31.7269 70.6313 31.7269C70.9249 31.7269 71.2186 31.4332 71.2186 31.1395V30.4053C71.2186 28.2026 69.4565 26.4405 67.2539 26.4405H55.3596C54.7722 26.4405 54.3317 26.1468 54.038 25.5595L53.157 23.5037C52.8633 22.9163 53.0101 22.1821 53.5975 21.7415L60.9396 15.4273C61.8207 14.6931 62.9954 14.2526 64.1702 14.2526H65.0512C65.9323 14.2526 66.6665 13.9589 67.107 13.3715C67.6944 12.7841 67.9881 12.0499 67.9881 11.1688C67.9881 9.55358 66.5197 8.23199 64.9044 8.23199H58.2965C55.6533 8.23199 53.4506 6.02935 53.4506 3.38618V0.00878906C53.4506 2.35828 55.3596 4.41408 57.8559 4.41408H67.9881C71.5123 4.41408 74.3023 7.20409 74.3023 10.7283C74.3023 12.0499 73.8618 13.2246 73.2744 14.2526C72.6871 14.9868 72.0997 15.5741 71.2186 15.8678C70.925 16.0147 70.7781 16.4552 70.925 16.7489C71.0718 17.0426 71.2186 17.0426 71.5123 17.0426C71.6592 17.0426 71.6592 17.0426 71.806 17.0426C72.9807 16.4552 74.0086 15.5741 74.7429 14.3994C79.7355 15.1336 83.7003 19.5389 83.7003 24.8252V50.6696C83.7003 50.6696 69.3097 56.837 69.3097 68.8781C69.3097 74.7518 72.9808 80.6255 73.1276 80.6255H65.6386L62.9954 74.1644C63.8765 70.4934 63.7296 69.6123 62.2612 66.0881L58.737 56.837C57.5622 53.7533 56.9749 50.6696 56.9749 47.439V44.5022C56.9749 44.2085 56.6812 43.9148 56.3875 43.9148C56.0938 43.9148 55.8001 44.2085 55.8001 44.5022V47.439C55.8001 50.8164 56.3875 54.1938 57.5622 57.2775L59.0307 60.9486H54.4785C50.0733 60.9486 45.668 62.2702 41.9969 64.6197C35.2421 69.0249 35.389 72.1086 35.389 72.1086C35.2421 72.8429 35.9763 74.7518 36.8574 76.0734C37.2979 76.6608 40.3816 80.4787 40.3816 80.4787H33.6269C33.6269 80.4787 31.8647 78.1292 30.69 75.9266C29.8089 71.0807 30.1026 69.1718 30.8368 66.5286C34.6548 63.7386 35.6827 60.9486 35.8295 56.837C35.389 55.6622 35.2421 54.3407 35.2421 53.0191C35.2421 51.8443 35.389 50.5227 35.8295 49.348C36.27 48.1733 36.8574 46.9985 37.5916 45.9706C38.179 45.2364 37.5916 44.2085 36.7106 44.2085H28.3405C23.9352 44.3553 20.2642 40.6843 20.411 36.279ZM64.9044 17.0426H63.2891C62.9954 17.0426 62.8486 16.8957 62.8486 16.602C62.8486 16.602 62.7017 16.4552 62.7017 16.602C62.4081 16.8957 62.4081 17.3362 62.5549 17.4831C62.7017 17.7768 62.8486 18.0705 62.8486 18.3641C62.8486 18.511 62.9954 18.6578 63.2891 18.6578C64.1702 18.511 64.7575 18.2173 65.1981 17.6299C65.3449 17.3362 65.1981 17.0426 64.9044 17.0426Z" fill="#464646"/>
<path d="M0 98.8341H0.293687C0.44053 98.8341 0.440529 98.6873 0.587372 98.5404L1.0279 92.373H2.0558L3.81792 96.191C3.96476 96.6315 4.1116 97.072 4.1116 97.072C4.1116 97.072 4.25844 96.4846 4.40529 96.191L6.1674 92.373H7.1953L7.63583 98.5404C7.63583 98.6873 7.78267 98.8341 7.92952 98.8341H8.2232V99.7152H7.48899C7.04846 99.7152 6.90162 99.5683 6.75477 99.1278L6.46109 95.3099C6.46109 94.8694 6.46109 94.282 6.46109 94.282C6.46109 94.282 6.31424 95.0162 6.02056 95.3099L4.55213 98.5404H3.67107L2.20264 95.3099C2.0558 94.8694 1.76212 94.282 1.76212 94.282C1.76212 94.282 1.76212 94.8694 1.76212 95.3099L1.61527 99.1278C1.61527 99.5683 1.46843 99.7152 1.0279 99.7152H0.146843V98.8341H0ZM8.81057 98.8341C9.2511 98.8341 9.39794 98.8341 9.39794 98.5404L10.4258 96.9252C10.5727 96.6315 10.8664 96.6315 10.8664 96.6315C10.7195 96.6315 9.39794 96.191 9.39794 94.7225C9.39794 93.4009 10.4258 92.5199 11.7474 92.5199H14.8311V93.4009H14.0969V99.7152H13.069V96.9252H12.188C11.7474 96.9252 11.6006 96.9252 11.4537 97.3657L10.4258 99.1278C10.1322 99.5683 9.98532 99.7152 9.39794 99.7152H8.95742V98.8341H8.81057ZM12.9222 96.191V93.5478H11.6006C10.7195 93.5478 10.1322 93.9883 10.1322 94.8694C10.1322 95.7504 10.7195 96.191 11.6006 96.191H12.9222V96.191ZM19.0896 92.373C20.1175 92.373 21.8796 92.8136 21.8796 93.9883V94.7225H20.9985V94.282C20.9985 93.6946 19.9706 93.4009 19.2364 93.4009C17.768 93.4009 16.5932 94.4288 16.5932 96.191C16.5932 97.8062 17.768 98.981 19.2364 98.981C20.7048 98.981 21.5859 97.9531 21.5859 97.9531L22.1733 98.6873C22.1733 98.6873 21.1454 99.862 19.3833 99.862C17.1806 99.862 15.7122 98.2468 15.7122 96.0441C15.4185 93.9883 16.8869 92.373 19.0896 92.373ZM26.138 92.373C28.1938 92.373 29.8091 93.9883 29.8091 96.0441C29.8091 98.2468 28.1938 99.862 26.138 99.862C24.0822 99.862 22.467 98.2468 22.467 96.0441C22.467 93.9883 24.0822 92.373 26.138 92.373ZM26.138 98.981C27.6065 98.981 28.7812 97.8062 28.7812 96.191C28.7812 94.5757 27.6065 93.4009 26.138 93.4009C24.6696 93.4009 23.4949 94.5757 23.4949 96.191C23.4949 97.6594 24.6696 98.981 26.138 98.981ZM31.2775 93.6946C31.2775 93.5478 31.1307 93.4009 30.9838 93.4009H30.5433V92.5199H31.5712C32.0118 92.5199 32.1586 92.6667 32.1586 93.1073V95.4567H32.8928C33.1865 95.4567 33.3333 95.4567 33.4802 95.1631L35.0954 92.373H36.2702L34.5081 95.4567C34.3612 95.7504 34.0675 95.8973 34.0675 95.8973C34.0675 95.8973 34.2144 95.8973 34.5081 96.3378L35.536 98.5404C35.6828 98.6873 35.8297 98.8341 35.9765 98.8341H36.1234V99.7152H35.536C34.9486 99.7152 34.8018 99.7152 34.5081 99.1278L33.1865 96.6315C33.0396 96.3378 32.8928 96.3378 32.5991 96.3378H32.0118V99.7152H30.9838V93.6946H31.2775ZM40.5286 92.373C42.5844 92.373 44.1997 93.9883 44.1997 96.0441C44.1997 98.2468 42.5844 99.862 40.5286 99.862C38.4728 99.862 36.8576 98.2468 36.8576 96.0441C36.7107 93.9883 38.326 92.373 40.5286 92.373ZM40.5286 98.981C41.9971 98.981 43.1718 97.8062 43.1718 96.191C43.1718 94.5757 41.9971 93.4009 40.5286 93.4009C39.0602 93.4009 37.8855 94.5757 37.8855 96.191C37.8855 97.6594 39.0602 98.981 40.5286 98.981ZM44.7871 98.8341H45.0808C45.2276 98.8341 45.2276 98.6873 45.3745 98.5404L45.815 92.373H46.8429L48.605 96.191C48.7518 96.6315 48.8987 97.072 48.8987 97.072C48.8987 97.072 49.0455 96.4846 49.1924 96.191L50.9545 92.373H51.9824L52.4229 98.5404C52.4229 98.6873 52.5698 98.8341 52.7166 98.8341H53.0103V99.7152H52.1292C51.6887 99.7152 51.5419 99.5683 51.395 99.1278L51.1013 95.3099C51.1013 94.8694 51.1013 94.282 51.1013 94.282C51.1013 94.282 50.9545 95.0162 50.6608 95.3099L49.1924 98.5404H48.605L47.1366 95.3099C46.9897 94.8694 46.696 94.282 46.696 94.282C46.696 94.282 46.696 94.8694 46.696 95.3099L46.4024 99.1278C46.4024 99.5683 46.2555 99.7152 45.815 99.7152H44.9339V98.8341H44.7871ZM54.4787 93.4009H53.7445V92.5199H58.0029C58.4435 92.5199 58.5903 92.6667 58.5903 93.1073V93.9883H57.7093V93.5478C57.7093 93.4009 57.5624 93.2541 57.4156 93.2541H55.3598V95.4567H56.6814C57.8561 95.4567 59.1777 96.0441 59.1777 97.5125C59.1777 98.981 58.1498 99.7152 56.6814 99.7152H54.9192C54.4787 99.7152 54.185 99.5683 54.185 99.1278V93.4009H54.4787ZM55.6535 98.981H56.8282C57.7092 98.981 58.1498 98.5404 58.1498 97.6594C58.1498 96.7783 57.7092 96.3378 56.8282 96.3378H55.3598V98.6873C55.5066 98.8341 55.5066 98.981 55.6535 98.981ZM60.4993 93.6946C60.4993 93.5478 60.3524 93.4009 60.2056 93.4009H59.765V92.5199H60.793C61.2335 92.5199 61.3803 92.6667 61.3803 93.1073V97.072C61.3803 97.5125 61.3803 98.0999 61.3803 98.0999C61.3803 98.0999 61.8209 97.5125 61.9677 97.072L65.1982 92.5199H66.2261V98.6873C66.2261 98.8341 66.373 98.981 66.5198 98.981H66.9604V99.862H65.9325C65.4919 99.862 65.1982 99.7152 65.1982 99.2747V95.3099C65.1982 94.8694 65.1982 94.282 65.1982 94.282C65.1982 94.282 64.9046 95.0162 64.6109 95.3099L61.3803 100.009H60.3524V93.6946H60.4993ZM68.4288 93.6946C68.4288 93.5478 68.2819 93.4009 68.1351 93.4009H67.6946V92.5199H68.7225C69.163 92.5199 69.3098 92.6667 69.3098 93.1073V95.6036H72.9809V93.1073C72.9809 92.6667 73.1278 92.5199 73.7151 92.5199H74.743V93.4009H74.3025C74.1557 93.4009 74.0088 93.4009 74.0088 93.6946V99.862H72.9809V96.6315H69.3098V99.862H68.2819V93.6946H68.4288ZM75.1836 98.8341C75.4772 98.8341 75.6241 98.8341 75.6241 98.5404L77.9736 92.5199H79.0015L81.2041 98.6873C81.2041 98.8341 81.351 98.981 81.4978 98.981H81.6446V99.862H81.0573C80.6167 99.862 80.3231 99.7152 80.1762 99.2747L79.5888 97.8062H76.9457L76.3583 99.2747C76.2115 99.7152 76.0646 99.862 75.4772 99.862H74.8899V98.8341H75.1836ZM79.5888 96.7783L78.8546 94.5757C78.7078 94.1352 78.5609 93.5478 78.5609 93.5478C78.5609 93.5478 78.4141 94.1352 78.2673 94.5757L77.533 96.7783H79.5888ZM83.8473 93.4009H82.3789C82.232 93.4009 82.0852 93.4009 82.0852 93.6946V94.1352H81.2041V93.1073C81.2041 92.6667 81.351 92.5199 81.7915 92.5199H86.7841C87.2247 92.5199 87.3715 92.6667 87.3715 93.1073V94.1352H86.4905V93.6946C86.4905 93.5478 86.3436 93.4009 86.1968 93.4009H84.7283V99.7152H83.8473V93.4009Z" fill="#D1232A"/>
</svg>
