<svg width="69" height="69" viewBox="0 0 69 69" fill="none" xmlns="http://www.w3.org/2000/svg">
<path d="M48.3887 63.8981C44.1716 65.8847 39.4665 67 34.5 67C16.5509 67 2 52.449 2 34.5C2 16.5509 16.5509 2 34.5 2C52.4491 2 67 16.5509 67 34.5C67 45.6354 61.4061 55.4638 52.8673 61.319M19.5831 53.3203C19.5831 53.3203 20.4544 48.3712 23.9222 44.9034C27.0067 41.8189 33.0362 38.264 35.7373 36.0334C38.4035 33.8377 39.5013 32.1299 39.5013 32.1299M41.2614 20.1582C43.1434 18.311 44.9732 15.9236 45.9839 14.0939C47.3606 16.6033 53.0067 32.9142 47.1166 43.3177C41.4531 53.3204 30.8927 53.4947 24.6193 48.9116C18.3284 44.3284 18.8686 36.9397 21.3432 33.6287C25.996 27.4424 32.3566 25.996 36.8351 23.2949" stroke="#D1232A" stroke-width="2.5" stroke-miterlimit="10" stroke-linecap="round" stroke-linejoin="round"/>
</svg>
