<svg width="60" height="69" viewBox="0 0 60 69" fill="none" xmlns="http://www.w3.org/2000/svg">
<path d="M39.8687 40.6549C37.7454 41.4904 36.2313 43.5698 36.2313 46.0019V49.3624H46.6818M44.0414 40.6548C46.1647 41.4903 47.6788 43.5697 47.6788 46.0018V47.1529M38.4101 34.1936H45.5002M48.7314 38.761H55.8215M54.3627 45.2031C56.486 46.0386 58 48.118 58 50.5502V53.9106H46.571V50.5502C46.571 48.118 48.085 46.0386 50.2083 45.2031M45.5 31.2044C45.5 30.5174 44.9461 29.9419 44.2445 29.9419H41.7334C39.887 29.9419 38.3915 31.4458 38.3915 33.3024V37.7582C38.3915 39.7262 39.9794 41.3229 41.9365 41.3229C43.8937 41.3229 45.4815 39.7262 45.4815 37.7582V31.2044H45.5ZM55.8213 35.7532C55.8213 35.0663 55.2674 34.4907 54.5658 34.4907H52.0547C50.2083 34.4907 48.7128 35.9946 48.7128 37.8512V42.3071C48.7128 44.2751 50.3006 45.8718 52.2578 45.8718C54.215 45.8718 55.8028 44.2751 55.8028 42.3071V35.7532H55.8213Z" stroke="#D1232A" stroke-width="2.5" stroke-miterlimit="10" stroke-linecap="round" stroke-linejoin="round"/>
<path d="M29.8982 9.03657V16.4816C29.8982 20.8632 26.3532 24.4279 21.9957 24.4279C17.6383 24.4279 14.0933 20.8632 14.0933 16.4816V5.78749C14.0933 4.33934 15.2565 3.16967 16.6967 3.16967H19.4108M17.7122 23.2211L14.9426 27.0457M29.0304 27.0271L26.2609 23.2025M29.0304 27.0271L34.0341 29.6264M29.0304 27.0271L26.3532 33.1911M8.66493 59.3508V67H21.8111H35.2158M10.7883 44.0708L11.8407 50.0306L20.7217 52.4256L25.2269 50.1234H28.3103V52.667L26.3901 54.5978H29.7136L34.0341 52.4627L34.9388 53.6324L30.4152 59.3508H7.74175L2.22109 51.7015C2.03646 51.4416 1.9626 51.1074 2.01799 50.7918L4.89833 34.2122C5.10143 33.024 5.80306 32.0029 6.83702 31.3902L14.9426 27.0271L17.6198 33.1911M20.7033 52.4256V59.3508M35.1973 53.9109L35.2342 66.9814L40.6626 67L42.3428 57.2528M17.6383 33.1911L21.9957 28.9394L17.4537 23.611M26.5378 23.5924L21.9957 28.9209L26.3532 33.1725M14.0933 10.132L19.0785 7.43988M20.1309 19.5264C21.1649 20.5661 22.8266 20.5661 23.8606 19.5264M29.8982 5.509C29.8982 3.55956 28.3288 2 26.4086 2H22.0142C20.0755 2 18.5246 3.57813 18.5246 5.509C18.5246 7.45844 20.094 9.018 22.0142 9.018H29.8982V5.509Z" stroke="#D1232A" stroke-width="2.5" stroke-miterlimit="10" stroke-linecap="round" stroke-linejoin="round"/>
</svg>
