<svg width="79" height="69" viewBox="0 0 79 69" fill="none" xmlns="http://www.w3.org/2000/svg">
<path d="M33.1945 59.17L39.5303 65.5053C41.5299 67.4982 44.7925 67.4982 46.7922 65.5053L46.8342 65.4634C48.8339 63.4705 48.8339 60.2189 46.8342 58.226C48.8339 60.2189 52.0965 60.2189 54.0961 58.226L54.1382 58.184C56.1379 56.1911 56.1379 52.9396 54.1382 50.9467C56.1379 52.9396 59.4004 52.9396 61.4001 50.9467L61.4422 50.9047C63.4419 48.9118 63.4419 45.6602 61.4422 43.6673M39.5092 13.2913L33.6155 7.41754C26.3957 0.222118 14.6715 0.222118 7.43064 7.41754C3.81022 11.0257 2 15.7458 2 20.4658C2 25.1858 3.81022 29.9058 7.43064 33.514L9.78811 35.8636M54.1593 50.9257L49.5074 46.2896M46.8553 58.205L42.2035 53.5689M71.5667 33.4931L61.4212 43.6044L45.1503 27.3885C44.3926 26.6333 43.1507 26.6333 42.3929 27.3885L39.7408 30.0317C37.3833 32.3812 33.5734 32.3812 31.2159 30.0317C28.8585 27.6822 28.8585 23.8852 31.2159 21.5357L45.4029 7.39656C52.6227 0.201146 64.347 0.201146 71.5878 7.39656C78.8076 14.613 78.8076 26.2976 71.5667 33.4931ZM13.5348 46.6882L18.4392 41.8003C20.4599 39.7864 20.4599 36.5349 18.4392 34.521C16.4185 32.5071 13.1559 32.5071 11.1352 34.521L6.23083 39.4088C4.21013 41.4227 4.21013 44.6743 6.23083 46.6882C8.25153 48.702 11.5141 48.702 13.5348 46.6882ZM29.6162 62.7153L33.0051 59.3378C35.0258 57.3239 35.0258 54.0724 33.0051 52.0585C30.9844 50.0446 27.7218 50.0446 25.7011 52.0585L22.3122 55.4359C20.2915 57.4498 20.2915 60.7014 22.3122 62.7153C24.3329 64.7291 27.5955 64.7291 29.6162 62.7153ZM23.0489 54.7017L28.8164 48.9538C31.237 46.5413 31.237 42.6184 28.8164 40.206C26.3957 37.7935 22.4596 37.7935 20.0389 40.206L14.2715 45.9539C11.8509 48.3664 11.8509 52.2893 14.2715 54.7017C16.6922 57.1142 20.6283 57.1142 23.0489 54.7017Z" stroke="#D1232A" stroke-width="2.5" stroke-miterlimit="10" stroke-linecap="round" stroke-linejoin="round"/>
</svg>
